<svg width="18" height="20" viewBox="0 0 18 20" fill="none" xmlns="http://www.w3.org/2000/svg">
<path d="M2.76817 10.1406L4.6666 9.44918C4.7252 9.42578 4.79551 9.41406 4.86578 9.41406H17.0298C17.358 9.41406 17.6158 9.67184 17.6158 10V18.2422C17.6158 19.2148 16.8307 20 15.858 20H4.13922C3.16653 20 2.38141 19.2148 2.38141 18.2422V10.6914C2.38141 10.4453 2.53379 10.2227 2.76817 10.1406Z" fill="#FC1A40"/>
<path d="M2.38141 10.6914V18.2422C2.38141 19.2148 3.16653 20 4.13922 20H9.9986V9.41406H4.86578C4.79547 9.41406 4.72516 9.42578 4.6666 9.44918L2.76817 10.1406C2.53379 10.2227 2.38141 10.4453 2.38141 10.6914Z" fill="#C60034"/>
<path d="M2.59235 3.81984C2.79153 3.01124 3.38922 2.37847 4.19782 2.12062C4.99469 1.87449 5.8502 2.05031 6.47126 2.61277L7.83067 3.80812L8.10016 2.01519C8.22907 1.19488 8.75641 0.50343 9.54153 0.175344C9.69387 0.116712 9.84622 0.0698366 9.99856 0.0463991C10.6431 -0.0825072 11.3111 0.0581178 11.8502 0.456594C12.565 0.972219 12.9282 1.83941 12.8111 2.70656C12.6822 3.57374 12.0962 4.31202 11.2642 4.60499L9.99856 5.06202L8.43997 5.63624C8.42825 5.63624 8.42825 5.63624 8.42825 5.63624L5.72122 6.6323C5.45172 6.72609 5.17047 6.773 4.90094 6.773C4.32665 6.773 3.76418 6.56199 3.31887 6.16359C2.66266 5.57765 2.38141 4.67527 2.59235 3.81984Z" fill="#FE9923"/>
<path d="M3.31891 6.16361C3.76422 6.56201 4.32672 6.77303 4.90098 6.77303C5.17047 6.77303 5.45172 6.72611 5.72125 6.63232L8.42828 5.63627C8.42828 5.63627 8.42828 5.63627 8.44 5.63627L9.9986 5.06205V0.0463867C9.84625 0.0698633 9.69391 0.116699 9.54157 0.175332C8.75645 0.503418 8.22906 1.19486 8.1002 2.01518L7.8307 3.80811L6.47129 2.61275C5.85024 2.05029 4.99473 1.87447 4.19785 2.12061C3.38926 2.37846 2.7916 3.01123 2.59239 3.81982C2.38141 4.67529 2.66266 5.57768 3.31891 6.16361Z" fill="#FE8821"/>
<path d="M0.37752 9.1445L1.17439 11.3476C1.26818 11.582 1.49084 11.7226 1.72521 11.7226C1.79553 11.7226 1.86584 11.7109 1.92439 11.6875L7.98303 9.48439L8.53377 7.66798L9.99861 7.99607L11.2876 8.28904L17.3463 6.08591C17.651 5.96876 17.8033 5.62888 17.6978 5.33591L16.8892 3.13286C16.7369 2.68755 16.4087 2.33591 15.9869 2.13673C15.565 1.93755 15.0845 1.91408 14.6392 2.07814L9.99857 3.76564L9.68213 3.88279C9.68213 3.88279 8.41654 6.1797 8.38135 6.1797C8.35787 6.1797 7.854 5.89845 7.36182 5.62888C6.86975 5.35935 6.37752 5.07814 6.37752 5.07814L1.43225 6.88279C0.986933 7.04685 0.63537 7.37501 0.436192 7.79689C0.236895 8.21872 0.213495 8.69923 0.37752 9.1445Z" fill="#FF3E75"/>
<path d="M0.377502 9.14449L1.17438 11.3476C1.26817 11.582 1.49082 11.7226 1.7252 11.7226C1.79551 11.7226 1.86582 11.7109 1.92438 11.6875L7.98301 9.48438L8.53375 7.66797L9.9986 7.99605V3.76562L9.68215 3.88277C9.68215 3.88277 8.41656 6.17969 8.38137 6.17969C8.35789 6.17969 7.85403 5.89844 7.36184 5.62887C6.86973 5.35934 6.3775 5.07812 6.3775 5.07812L1.43223 6.88277C0.986917 7.04684 0.635354 7.375 0.436174 7.79688C0.236877 8.21871 0.213479 8.69922 0.377502 9.14449Z" fill="#FC1A40"/>
<path d="M11.7564 9.41406V20H8.24078V9.41406H11.7564Z" fill="#FCBF29"/>
<path d="M9.68219 3.88281L9.99864 4.75L11.2877 8.2891L9.99864 8.75789L8.53379 9.28523L7.98305 9.48441L6.3775 5.07816L9.68219 3.88281Z" fill="#FCBF29"/>
<path d="M8.2406 9.41406H9.99841V20H8.2406V9.41406Z" fill="#FE9923"/>
<path d="M6.3775 5.07816L7.98301 9.48441L8.53375 9.2852L9.9986 8.75785V4.75L9.68219 3.88281L6.3775 5.07816Z" fill="#FE9923"/>
</svg>
